<?xml version="1.0" encoding="UTF-8"?>
<svg width="80px" height="47px" viewBox="0 0 80 47" version="1.1" xmlns="http://www.w3.org/2000/svg" xmlns:xlink="http://www.w3.org/1999/xlink">
    <!-- Generator: Sketch 52.6 (67491) - http://www.bohemiancoding.com/sketch -->
    <title>Group</title>
    <desc>Created with Sketch.</desc>
    <g id="Current-header" stroke="none" stroke-width="1" fill="none" fill-rule="evenodd">
        <g id="Group" fill="#00A1DE">
            <polygon id="Path" points="22.4082908 26.8474065 14.9393282 26.8474065 7.46989796 34.3398453 7.46989796 26.8474065 8.8817842e-15 26.8474065 8.8817842e-15 46.8261513 7.46989796 46.8261513 7.46989796 39.3332445 14.9393282 46.8261513 24.8982568 46.8261513 13.6938776 35.5874931"></polygon>
            <polygon id="Path" points="32.3681548 26.8474065 24.8982568 26.8474065 24.8982568 46.8261513 44.8179847 46.8261513 44.8179847 41.7882935 32.3681548 41.7882935"></polygon>
            <polygon id="Path" points="67.2253401 26.8474065 63.4917942 38.0855967 59.7568452 26.8474065 47.307483 26.8474065 47.307483 46.8261513 54.777381 46.8261513 54.777381 31.8412737 59.7563776 46.8261513 67.2253401 46.8261513 72.2052721 31.8412737 72.2052721 46.8261513 79.6751701 46.8261513 79.6751701 26.8474065"></polygon>
            <path d="M34.8576531,15.6082803 C37.2643707,15.6082803 39.2150935,13.6521033 39.2150935,11.238237 C39.2150935,8.82437072 37.2643707,6.86725772 34.8576531,6.86725772 C32.4514031,6.86725772 30.5006803,8.82390273 30.5006803,11.238237 C30.5006803,13.6525713 32.4509354,15.6082803 34.8576531,15.6082803 L34.8576531,15.6082803 Z" id="Path"></path>
            <path d="M40.4600765,11.238237 C40.4600765,13.6525713 42.4107993,15.6082803 44.8170493,15.6082803 C47.223767,15.6082803 49.1744898,13.6521033 49.1744898,11.238237 C49.1744898,8.82437072 47.223767,6.86725772 44.8170493,6.86725772 C42.4107993,6.86725772 40.4600765,8.82390273 40.4600765,11.238237 L40.4600765,11.238237 Z" id="Path"></path>
            <path d="M29.2556973,11.238237 C29.2556973,8.82390273 27.3049745,6.86725772 24.8982568,6.86725772 C22.4920068,6.86725772 20.541284,8.82390273 20.541284,11.238237 C20.541284,13.6525713 22.4920068,15.6082803 24.8982568,15.6082803 C27.3045068,15.6082803 29.2556973,13.6525713 29.2556973,11.238237 L29.2556973,11.238237 Z" id="Path"></path>
            <polygon id="Path" points="24.8982568 21.8516673 54.777381 21.8516673 54.777381 16.8568641 24.8982568 16.8568641"></polygon>
            <path d="M54.777381,6.86725772 C52.3697279,6.86725772 50.4194728,8.82390273 50.4194728,11.238237 C50.4194728,13.6525713 52.3697279,15.6082803 54.777381,15.6082803 C57.1826956,15.6082803 59.1334184,13.6521033 59.1334184,11.238237 C59.1334184,8.82437072 57.1826956,6.86725772 54.777381,6.86725772 L54.777381,6.86725772 Z" id="Path"></path>
            <polygon id="Path" points="38.592602 7.49201761 41.0821003 7.49201761 41.0821003 4.99438202 43.572534 4.99438202 43.572534 2.49721441 41.0821003 2.49721441 41.0821003 4.67984934e-05 38.592602 4.67984934e-05 38.592602 2.49721441 36.1031037 2.49721441 36.1031037 4.99438202 38.592602 4.99438202"></polygon>
        </g>
    </g>
</svg>