<svg xmlns="http://www.w3.org/2000/svg" viewBox="70 70 310 72"><defs><style>.cls-3{fill:#04107f}.cls-4{fill:#cc1212}</style></defs><g id="Capa_2" data-name="Capa 2"><g id="Capa_1-2" data-name="Capa 1"><path fill="none" stroke="#008c3f" stroke-miterlimit="10" stroke-opacity="0" stroke-width=".61" d="M.3.3h449.82v211.43H.3z"/><path d="M335.37 113.05a23.38 23.38 0 10-19.25 26.83 23.38 23.38 0 0019.25-26.83zm-30.78 18.72a7.46 7.46 0 117.47-7.45 7.46 7.46 0 01-7.47 7.45z" fill="#fcd722"/><path class="cls-3" d="M356.83 102.76a18.66 18.66 0 1021.5 15.35 18.65 18.65 0 00-21.5-15.35zm15 24.52a6 6 0 11-6-6 6 6 0 015.99 6z"/><path class="cls-4" d="M328.54 88.09A14 14 0 10340.06 72a14 14 0 00-11.52 16.09zm18.19-11.2a4.46 4.46 0 11-4.46 4.46 4.47 4.47 0 014.46-4.46zM71.84 99.63h7.94L90 128.45l10.35-28.82h7.93L93.65 140.2h-7.44zM116.44 97.83a4.57 4.57 0 013.39 1.44 4.94 4.94 0 010 6.91 4.72 4.72 0 01-6.78 0 4.84 4.84 0 01-1.42-3.52 4.81 4.81 0 014.79-4.8zm-3.77 12.36h7.53v30h-7.53zM123.83 110.19h7.67l7.58 17.71 7.57-17.71h7.63l-12.77 30h-4.88zM179.7 109.42h7.52v30h-7.52v-3.18a14.75 14.75 0 01-4.43 3 12.26 12.26 0 01-4.8.93 13.35 13.35 0 01-10.06-4.51 15.72 15.72 0 01-4.24-11.21 16.13 16.13 0 014.1-11.39 13.09 13.09 0 0110-4.44 12.76 12.76 0 015.07 1 14 14 0 014.38 3.06zm-7.92 6.18a7.59 7.59 0 00-5.8 2.47 8.87 8.87 0 00-2.31 6.32 9 9 0 002.35 6.4 7.61 7.61 0 005.79 2.51 7.75 7.75 0 005.88-2.47 9 9 0 002.34-6.46 8.78 8.78 0 00-2.34-6.35 7.89 7.89 0 00-5.91-2.42z"/><path class="cls-3" d="M213.22 99.63h7.83l15.61 40.57h-8l-3.18-8.36H208.9l-3.3 8.36h-8zm4 10.75l-5.44 13.93h10.85zM245.73 97.83a4.61 4.61 0 013.4 1.44 4.75 4.75 0 011.41 3.47 4.69 4.69 0 01-1.4 3.44 4.56 4.56 0 01-3.35 1.42 4.62 4.62 0 01-3.43-1.45 4.87 4.87 0 01-1.41-3.52 4.8 4.8 0 014.78-4.8zM242 110.19h7.52v30H242zM257.82 110.19h6.46V114a8.1 8.1 0 012.78-3.39 6.68 6.68 0 013.81-1.16 7.13 7.13 0 013.06.77l-2.34 6.48a5.22 5.22 0 00-2.18-.66c-1.16 0-2.14.72-2.94 2.15s-1.2 4.25-1.2 8.44v13.57h-7.48z"/></g></g></svg>
